<?xml version="1.0" standalone="no"?>
<!DOCTYPE svg PUBLIC "-//W3C//DTD SVG 20010904//EN"
 "http://www.w3.org/TR/2001/REC-SVG-20010904/DTD/svg10.dtd">
<svg version="1.0" xmlns="http://www.w3.org/2000/svg"
 width="600.000000pt" height="435.000000pt" viewBox="0 0 600.000000 435.000000"
 preserveAspectRatio="xMidYMid meet">

<g transform="translate(0.000000,435.000000) scale(0.100000,-0.100000)"
fill="#000000" stroke="none">
<path d="M0 2175 l0 -2175 3000 0 3000 0 0 2175 0 2175 -3000 0 -3000 0 0
-2175z m3320 1021 l0 -84 -30 -4 c-17 -3 -32 -2 -35 0 -3 3 -5 43 -5 89 l0 83
35 0 35 0 0 -84z m415 -6 c0 -20 -6 -26 -27 -28 -22 -3 -28 -9 -28 -28 0 -21
-5 -24 -35 -24 -31 0 -35 3 -35 25 0 22 4 25 35 25 32 0 35 2 35 31 0 27 3 30
27 27 22 -2 28 -8 28 -28z m-365 -120 c0 -25 -4 -30 -25 -30 -24 0 -25 -3 -25
-61 0 -60 0 -60 28 -57 25 3 27 6 28 53 2 68 1 65 29 65 22 0 24 -4 27 -57 3
-57 3 -58 36 -61 l32 -3 0 60 c0 58 1 61 25 61 26 0 27 -1 27 -70 0 -111 0
-110 -27 -110 -21 0 -25 -5 -25 -30 l0 -30 -65 0 -65 0 0 -30 c0 -25 -4 -30
-25 -30 -21 0 -25 -5 -25 -30 0 -28 -3 -30 -35 -30 -32 0 -35 -2 -35 -30 0
-25 -4 -30 -25 -30 -14 0 -26 5 -26 10 -5 40 -3 45 24 48 23 3 27 8 27 33 0
27 3 29 35 29 l35 0 0 59 0 60 -32 3 c-28 2 -34 8 -36 31 -4 29 -5 30 -69 28
-41 -1 -43 0 -43 29 0 30 1 30 55 30 54 0 55 0 55 30 0 28 3 30 35 30 32 0 35
2 35 30 0 25 4 30 25 30 21 0 25 -5 25 -30z m240 0 c0 -25 -4 -30 -25 -30 -21
0 -25 5 -25 30 0 25 4 30 25 30 21 0 25 -5 25 -30z m-900 -361 c0 -28 2 -30
33 -27 27 2 33 8 35 31 l3 27 85 0 c48 0 85 -4 85 -10 1 -5 3 -14 4 -20 1 -5
3 -14 4 -20 0 -5 12 -10 26 -10 24 0 25 -3 25 -60 l0 -60 30 0 c27 0 30 -3 30
-29 0 -26 4 -30 33 -33 l32 -3 0 -145 0 -145 -32 -3 -33 -3 0 -59 c0 -57 -1
-59 -27 -62 -22 -2 -29 -9 -31 -30 -3 -27 -5 -28 -63 -28 -59 0 -59 0 -59 -30
l0 -30 -144 0 -145 0 -3 28 c-3 25 -6 27 -63 32 -57 5 -60 7 -63 33 -3 23 -8
27 -33 27 -29 0 -29 0 -29 60 l0 60 -30 0 -30 0 0 150 0 150 30 0 c27 0 30 3
30 30 0 27 3 30 30 30 l30 0 0 60 0 60 30 0 c27 0 30 3 30 30 l0 30 90 0 90 0
0 -31z m480 -119 c0 -25 -4 -30 -25 -30 -21 0 -25 5 -25 30 0 25 4 30 25 30
21 0 25 -5 25 -30z m-1020 -2158 c0 -4 -20 -6 -45 -4 l-45 4 40 -39 c66 -66
66 -120 0 -186 l-40 -39 45 4 c25 2 45 0 45 -4 0 -5 -425 -8 -944 -8 l-945 0
-36 21 c-40 24 -85 87 -85 119 0 30 45 97 77 114 l28 15 -47 1 -48 0 -2 -47
c-1 -46 -2 -46 -5 -9 -3 21 -2 44 1 52 5 12 159 14 1006 14 550 0 1000 -3
1000 -8z m-1952 -265 l47 -3 -52 -2 -53 -2 2 53 2 52 3 -47 4 -47 47 -4z"/>
<path d="M2470 2470 l0 -90 90 0 90 0 0 30 c0 27 3 30 30 30 27 0 30 3 30 30
0 27 3 30 30 30 19 0 30 -5 31 -15 1 -8 2 -21 3 -27 0 -7 13 -14 29 -16 23 -3
27 -8 27 -33 l0 -29 90 0 90 0 0 90 0 90 -270 0 -270 0 0 -90z"/>
<path d="M2530 2231 c0 -28 3 -31 29 -31 26 0 30 -4 33 -32 l3 -31 135 1 c74
1 141 1 148 2 7 0 12 13 12 30 0 28 3 30 35 30 32 0 35 2 35 30 0 28 -3 30
-35 30 -32 0 -35 -2 -35 -30 l0 -30 -144 0 -145 0 -3 28 c-2 22 -8 28 -35 30
-31 3 -33 1 -33 -27z"/>
<path d="M270 300 c0 -16 5 -30 10 -30 6 0 10 14 10 30 0 17 -4 30 -10 30 -5
0 -10 -13 -10 -30z"/>
<path d="M300 300 c0 -16 5 -30 10 -30 6 0 10 14 10 30 0 17 -4 30 -10 30 -5
0 -10 -13 -10 -30z"/>
<path d="M1905 300 c0 -15 3 -26 8 -23 4 2 7 13 7 23 0 10 -3 21 -7 23 -5 3
-8 -8 -8 -23z"/>
<path d="M482 300 c8 -12 15 -15 19 -8 5 7 8 7 12 -1 4 -8 5 -8 3 0 -1 7 -12
16 -24 20 -20 7 -20 6 -10 -11z"/>
<path d="M691 297 c-13 -21 -12 -21 5 -5 10 10 16 20 13 22 -3 3 -11 -5 -18
-17z"/>
<path d="M1860 310 c-13 -9 -13 -11 0 -20 19 -12 35 -8 35 10 0 18 -16 22 -35
10z"/>
<path d="M604 290 c0 -13 4 -16 10 -10 7 7 7 13 0 20 -6 6 -10 3 -10 -10z"/>
<path d="M649 293 c-13 -16 -12 -17 4 -4 16 13 21 21 13 21 -2 0 -10 -8 -17
-17z"/>
<path d="M790 300 c0 -6 113 -10 320 -10 207 0 320 4 320 10 0 6 -113 10 -320
10 -207 0 -320 -4 -320 -10z"/>
<path d="M2030 300 c0 -5 5 -10 11 -10 5 0 7 5 4 10 -3 6 -8 10 -11 10 -2 0
-4 -4 -4 -10z"/>
</g>
</svg>
